<svg width="56" height="65" viewBox="0 0 56 65" fill="none" xmlns="http://www.w3.org/2000/svg">
<path opacity="0.3" fill-rule="evenodd" clip-rule="evenodd" d="M2.6694 56.6532C2.68233 56.7174 2.70819 56.7773 2.74269 56.8315C3.37514 57.8002 4.41724 58.9543 5.59014 59.4679C6.46695 59.8503 7.41419 59.8988 8.34704 59.3509C8.74807 59.1155 9.16059 58.679 9.59612 58.301C9.89653 58.0399 10.1969 57.7845 10.5505 57.7974C10.7705 57.8045 10.9415 57.9315 11.1039 58.0713C11.3612 58.2924 11.5912 58.5649 11.8384 58.7803C12.3156 59.1969 12.8417 59.4351 13.5403 59.1983C14.2647 58.9544 15.153 58.786 15.8085 58.3965C16.1807 58.174 16.4682 57.7959 16.76 57.445C16.9914 57.1625 17.2228 56.8772 17.6929 57.0584C18.0781 57.2068 18.6818 57.6889 19.3085 58.261C20.2816 59.1498 21.2978 60.2668 21.5781 60.8617C21.8771 61.4994 21.995 62.1842 22.2307 62.8005C22.5167 63.5481 22.9494 64.2057 23.8707 64.648C25.1385 65.2557 26.1921 64.9975 27.1796 64.4711C28.0046 64.0331 28.7722 63.3797 29.6145 63.053C29.9825 62.9104 30.441 62.9546 30.8995 63.0259C31.4615 63.1144 32.0235 63.2613 32.4778 63.3241C34.48 63.6008 36.3314 63.9718 38.3494 63.6993C38.5262 63.675 39.646 63.6722 39.8759 63.6536C40.2353 63.6251 40.3503 63.3669 40.3647 63.3326C40.4437 63.16 40.471 62.8818 40.4509 62.5751C40.4336 62.3126 40.3761 62.0173 40.4049 61.8447C40.5774 60.789 41.0187 59.7789 41.5261 58.8417C41.9587 58.0428 42.8757 57.1511 43.5758 56.2338C44.1162 55.5248 44.5287 54.7943 44.6135 54.0882C44.7817 52.6715 44.1191 51.583 43.6045 50.5102C43.2063 49.6799 42.9261 48.8525 43.6261 47.774C44.0343 47.1448 44.6983 47.0806 45.3797 47.0164C46.3298 46.9251 47.323 46.8623 48.1064 46.2318C48.6842 45.7696 49.0019 45.0805 49.1988 44.3073C49.4417 43.3543 49.4877 42.2601 49.8514 41.474C50.192 40.7393 50.8173 40.1002 51.5201 39.4939C52.2834 38.8348 53.1415 38.2185 53.8861 37.5894C55 36.6478 55.8495 35.6534 55.9645 34.5136C56.1629 32.5406 55.5046 30.7259 54.6177 28.9812C53.7869 27.3463 52.7534 25.7741 52.1454 24.1706C51.9025 23.5343 51.8392 22.6569 51.8407 21.7225C51.8436 20.216 52.0275 18.5669 52.0577 17.4256C52.0793 16.5739 52.3984 15.8592 52.7505 15.1587C53.1544 14.3569 53.6029 13.5723 53.8329 12.6735C54.3331 10.7119 54.0456 8.60765 54.5185 6.61753C54.668 5.98981 55.046 5.39208 55.322 4.78006C55.6684 4.01397 55.8696 3.23358 55.585 2.39901C55.1783 1.20636 54.4179 0.470237 53.5124 0.162088C52.6183 -0.140354 51.5618 -0.0247997 50.5197 0.55298C49.7019 1.00664 48.93 1.77985 48.1251 2.5702C47.3963 3.28636 46.6359 4.01822 45.7519 4.46903C45.4515 4.62311 45.1296 4.6545 44.8076 4.68731C44.3721 4.73153 43.9337 4.77005 43.5082 4.92983C42.7148 5.22799 42.0262 5.77723 41.2285 6.06541C38.2344 7.14678 35.0334 7.9243 32.2521 9.53923C31.2934 10.0956 30.5977 10.8731 29.6979 11.498C28.272 12.488 26.5831 12.8675 25.1471 13.7677C24.1625 14.3855 22.2407 16.3057 21.2648 17.1873C20.4455 17.9292 19.6391 19.0034 18.7723 19.9949C17.9818 20.8994 17.1467 21.7382 16.1678 22.1034C15.899 22.2033 15.5756 22.1862 15.2191 22.132C14.7807 22.0649 14.3035 21.9322 13.8105 21.7967C12.698 21.4914 11.5165 21.1918 10.5117 21.4001C9.55012 21.5999 8.58132 22.3188 7.66715 23.0065C7.26325 23.3118 6.86941 23.6071 6.48994 23.8225C6.18378 23.998 5.89344 24.1264 5.61459 24.125C4.61992 24.1192 3.41251 23.7012 2.48109 23.3688C2.40204 23.3403 1.73078 23.0678 1.41887 23.0093C1.08252 22.9466 0.864052 23.0878 0.783559 23.1748C0.204295 23.7968 -0.00701025 24.5615 0.00017664 25.3675C0.00880091 26.4289 0.412715 27.5674 0.71169 28.4519C0.922984 29.081 0.980465 29.7301 1.07389 30.3693C1.1817 31.1054 1.33406 31.8287 1.72359 32.5077C2.23386 33.3994 2.80451 33.9743 3.34784 34.525C4.05503 35.2426 4.70903 35.9131 5.01232 37.4167C5.30267 38.8662 4.74353 39.9233 4.04784 40.9419C3.24147 42.1217 2.26692 43.2559 1.86877 44.7224C1.4433 46.2903 1.7969 47.5414 2.30142 48.764C2.74557 49.8368 3.32052 50.8826 3.42832 52.1651C3.48869 52.887 3.21847 53.5018 2.98993 54.1281C2.70389 54.9156 2.46673 55.7131 2.6694 56.6532ZM39.3743 62.6008C38.946 62.6108 38.3221 62.6265 38.2043 62.6436C36.2868 62.9018 34.5289 62.5309 32.6258 62.2684C32.0796 62.1942 31.3753 61.9959 30.7055 61.926C30.1708 61.8689 29.6562 61.8932 29.2235 62.0615C28.3439 62.4025 27.5346 63.0744 26.6722 63.5324C25.9751 63.9047 25.2319 64.1187 24.3379 63.6893C23.5703 63.3198 23.3173 62.7149 23.1132 62.0686C22.9422 61.5251 22.8056 60.9531 22.5498 60.4109C22.2379 59.7447 21.1253 58.4722 20.0358 57.4764C19.2855 56.793 18.5424 56.2424 18.081 56.0655C17.7188 55.9257 17.4126 55.9028 17.1467 55.9456C16.7485 56.0098 16.428 56.2267 16.1462 56.522C15.8501 56.833 15.6202 57.2667 15.2565 57.4821C14.6629 57.8359 13.8508 57.9686 13.1953 58.1897C12.9625 58.2682 12.79 58.174 12.6275 58.047C12.4407 57.8987 12.2682 57.7075 12.0871 57.5278C11.6631 57.1055 11.1916 56.7545 10.5894 56.7317C10.0834 56.7146 9.60618 56.9343 9.16347 57.2738C8.67763 57.6462 8.23636 58.1783 7.80083 58.4351C7.03327 58.8844 6.25421 58.6819 5.56714 58.2482C4.80533 57.7674 4.14845 57.0056 3.70143 56.3379C3.58212 55.6546 3.78766 55.0711 4.0004 54.4905C4.27925 53.723 4.57248 52.9611 4.49774 52.0752C4.37988 50.6771 3.77761 49.5287 3.29465 48.3603C2.87494 47.3417 2.55152 46.3046 2.90511 44.9992C3.27164 43.6511 4.19588 42.6239 4.93613 41.5397C5.78706 40.2928 6.42096 38.9832 6.06449 37.2084C5.76407 35.7133 5.17905 34.9045 4.50492 34.1826C3.91272 33.5477 3.23571 32.9928 2.65645 31.9813C2.33591 31.4221 2.22524 30.8229 2.13612 30.2166C2.03407 29.5147 1.96077 28.8042 1.72935 28.1138C1.50368 27.4461 1.20183 26.6215 1.10409 25.8069C1.03222 25.2063 1.06814 24.61 1.3973 24.1192L2.11743 24.3718C3.15378 24.7412 4.50349 25.1835 5.60883 25.1892C6.2844 25.1935 7.03471 24.7912 7.80371 24.2348C8.73944 23.5629 9.72549 22.6527 10.7317 22.443C11.7738 22.2275 13.0243 22.7026 14.1411 22.9894C15.061 23.2262 15.9062 23.3389 16.5444 23.1006C17.6771 22.6798 18.6688 21.7382 19.583 20.6925C20.421 19.7352 21.1958 18.6924 21.9878 17.9748C22.9278 17.126 24.772 15.2628 25.7206 14.6679C27.171 13.7592 28.8742 13.3711 30.3131 12.3711C31.1884 11.7633 31.8611 11.0001 32.794 10.4594C35.5207 8.87585 38.6628 8.12687 41.595 7.0669C42.3971 6.77729 43.0899 6.22662 43.8891 5.9256C44.224 5.80006 44.5718 5.78151 44.9154 5.74728C45.371 5.70162 45.8181 5.63317 46.2421 5.41775C47.2209 4.91844 48.0733 4.12094 48.8797 3.32774C49.6113 2.61015 50.3012 1.89543 51.0429 1.48314C51.7832 1.07227 52.5306 0.955297 53.1659 1.17072C53.7912 1.38328 54.2871 1.91684 54.5674 2.74142C54.76 3.30493 54.5775 3.82707 54.3432 4.34494C54.0384 5.01687 53.6388 5.6831 53.4735 6.37358C53.0021 8.358 53.291 10.4566 52.7908 12.4125C52.5824 13.2342 52.1598 13.9489 51.7904 14.6836C51.3692 15.5196 51.0113 16.3799 50.984 17.3985C50.9553 18.5469 50.7698 20.2061 50.767 21.7211C50.7655 22.8011 50.8604 23.8111 51.1407 24.5472C51.7616 26.1836 52.8109 27.7913 53.659 29.4619C54.4538 31.0241 55.0733 32.6404 54.8951 34.408C54.8419 34.9387 54.5487 35.4123 54.1434 35.8703C53.6791 36.3953 53.0668 36.8932 52.4286 37.3953C51.03 38.4953 49.5222 39.6294 48.8754 41.0289C48.5476 41.7408 48.4398 42.6795 48.2645 43.5726C48.1222 44.2916 47.9497 44.9878 47.4322 45.4043C46.817 45.8979 46.0207 45.8851 45.2776 45.955C44.2643 46.052 43.33 46.2617 42.7234 47.1976C41.7589 48.6841 42.0866 49.8226 42.6357 50.9681C43.0684 51.8712 43.6893 52.77 43.547 53.9626C43.4636 54.656 42.9289 55.3521 42.3583 56.0426C41.6942 56.8458 40.964 57.629 40.5803 58.3381C40.0168 59.3781 39.5367 60.5022 39.3455 61.6735C39.3125 61.8732 39.3412 62.1899 39.3685 62.5009C39.3714 62.5309 39.3729 62.5651 39.3743 62.6008Z" fill="black"/>
</svg>
