<svg width="18" height="18" viewBox="0 0 18 18" fill="none" xmlns="http://www.w3.org/2000/svg">
<path d="M17.9778 8.67434C17.9483 8.17105 17.8891 7.66776 17.8004 7.19408C17.6821 6.60197 17.5047 6.03947 17.2682 5.50658C17.0316 4.97369 16.7655 4.4704 16.4402 3.96711C16.115 3.49342 15.7602 3.04934 15.3462 2.63487C14.9322 2.2204 14.4887 1.86513 14.0156 1.53947C13.5425 1.21381 13.0103 0.947371 12.478 0.710529C11.9458 0.473687 11.3544 0.296054 10.7926 0.177633C10.2012 0.0592123 9.58028 0 8.9889 0C8.36796 0 7.77659 0.0592123 7.18521 0.177633C6.59384 0.296054 6.03203 0.473687 5.49979 0.710529C4.96755 0.947371 4.46488 1.21381 3.96221 1.53947C3.48911 1.86513 3.04558 2.2204 2.63161 2.63487C2.21765 3.04934 1.86284 3.49342 1.53758 3.96711C1.21232 4.44079 0.946191 4.97369 0.70964 5.50658C0.47309 6.03947 0.295681 6.63158 0.177406 7.19408C0.0886992 7.63816 0.0295688 8.11184 0 8.58553C0 8.73355 0 8.85198 0 9C0 9.62171 0.0591304 10.2138 0.177406 10.8059C0.295681 11.398 0.47309 11.9605 0.70964 12.4934C0.946191 13.0263 1.21232 13.5296 1.53758 14.0329C1.86284 14.5066 2.21765 14.9507 2.63161 15.3651C3.04558 15.7796 3.48911 16.1349 3.96221 16.4605C4.43531 16.7862 4.96755 17.0526 5.49979 17.2895C6.03203 17.5263 6.62341 17.7039 7.18521 17.8224C7.77659 17.9408 8.39753 18 8.9889 18C9.60985 18 10.2012 17.9408 10.7926 17.8224C11.384 17.7039 11.9458 17.5263 12.478 17.2895C13.0103 17.0526 13.5129 16.7862 14.0156 16.4605C14.4887 16.1349 14.9322 15.7796 15.3462 15.3651C15.7602 14.9507 16.115 14.5066 16.4402 14.0329C16.7655 13.5592 17.0316 13.0263 17.2682 12.4934C17.5047 11.9605 17.6821 11.3684 17.8004 10.8059C17.9187 10.2138 17.9778 9.59211 17.9778 9C18.0074 8.91119 18.0074 8.79276 17.9778 8.67434ZM8.9889 1.33224C10.9404 1.33224 12.7146 2.07237 14.0747 3.25658C14.0452 3.28618 12.9511 4.94408 10.0534 6.03948C8.75237 3.61184 7.30349 1.7171 7.18521 1.53947C7.77659 1.39145 8.36796 1.33224 8.9889 1.33224ZM7.15565 1.53947C7.15565 1.56908 7.15565 1.56908 7.15565 1.53947V1.53947ZM5.73634 2.07237C5.82504 2.22039 7.27392 4.14474 8.57495 6.51316C4.87885 7.49013 1.68542 7.46052 1.47844 7.46052C1.98111 5.0625 3.57781 3.07895 5.73634 2.07237ZM3.28213 14.1513C2.06981 12.7895 1.30102 10.9836 1.30102 9C1.30102 8.91119 1.30102 8.82237 1.30102 8.76316C1.44886 8.76316 5.23367 8.85198 9.19589 7.66777C9.40287 8.11184 9.63943 8.52632 9.81684 8.9704C9.72814 9 9.60986 9.02961 9.52116 9.05921C5.38153 10.4211 3.28213 14.1513 3.28213 14.1513ZM8.9889 16.727C7.21478 16.727 5.55892 16.1053 4.2579 15.0987C4.2579 15.0987 4.19877 15.0395 4.08049 14.9507C4.13963 15.0099 4.19876 15.0395 4.2579 15.0691C4.2579 15.0395 5.73634 11.8421 10.2899 10.273C10.3195 10.273 10.3195 10.273 10.3491 10.2434C11.4431 13.0559 11.8867 15.4243 12.0049 16.0757C11.0883 16.4901 10.0534 16.727 8.9889 16.727ZM13.306 15.3947C13.2173 14.9211 12.8328 12.6711 11.7979 9.88816C14.2817 9.50329 16.4402 10.1842 16.5881 10.2138C16.2333 12.375 15.021 14.2401 13.306 15.3947ZM11.3248 8.70395C11.2657 8.58553 11.2066 8.4375 11.1474 8.31908C11.0292 8.05263 10.9109 7.78619 10.7926 7.51974C10.7335 7.43092 10.7039 7.3125 10.6448 7.22369C13.6904 5.98027 14.9027 4.20395 14.9322 4.17434C15.8784 5.32895 16.4994 6.77961 16.6472 8.37829C16.6768 8.58553 16.6768 8.79276 16.6768 9C16.5585 8.91119 13.9565 8.34869 11.3248 8.70395Z" fill="#212427"/>
</svg>
