<svg width="29" height="18" viewBox="0 0 29 18" fill="none" xmlns="http://www.w3.org/2000/svg">
<path d="M3.63457 9.82212H8.13464C9.12983 9.82212 10.8173 10.2548 10.8173 12.1587C10.8173 13.1538 10.0384 14.3221 9.04323 14.3221H3.63457V9.82212ZM18.0432 0.822119H26.1346V3.50481H18.0432V0.822119ZM25.0528 9.82212H19.125C19.3413 8.22116 20.5096 7.13942 22.1105 7.13942C23.6249 7.18269 24.7932 8.26443 25.0528 9.82212ZM18.9086 11.6394H28.8172C28.8172 11.4663 28.8172 11.3365 28.8172 11.1635C28.8172 7.44231 26.1346 4.41347 22.0673 4.41347C18 4.41347 15.3173 7.39904 15.3173 11.1635C15.3173 14.9279 18 17.9135 22.0673 17.9135C26.1346 17.9135 28.0817 15.5769 28.6875 12.5048H25.0528C24.7067 14.1058 23.798 15.1875 22.1105 15.1875C20.3797 15.2308 19.0384 13.6731 18.9086 11.6394ZM14.4519 12.5481C14.4519 10.601 13.1539 8.91347 11.3798 8.3077C12.6346 7.52885 13.5 6.10096 13.5 4.5C13.5 1.99039 11.4664 0 9.00002 0H0V18H9.00002C11.9856 17.9567 14.4519 15.5337 14.4519 12.5481ZM8.09132 7.18269H3.59137V3.54808H8.09132C9.08652 3.54808 9.90861 4.3702 9.90861 5.36539C9.90861 6.36058 9.08652 7.18269 8.09132 7.18269Z" fill="#212427"/>
</svg>
