<svg width="55" height="61" viewBox="0 0 55 61" fill="none" xmlns="http://www.w3.org/2000/svg">
<path opacity="0.3" d="M0.5 60.5001H10.625M10.625 60.5001H44.375M10.625 60.5001V45.418M54.5 60.5001H44.375M44.375 60.5001C44.375 55.0163 44.1141 50.0006 43.6349 45.418M10.625 45.418V30.3359M10.625 45.418H43.6349M43.6349 45.418C43.0422 39.7518 42.1151 34.7469 40.9335 30.3359M10.625 15.2538V6.23801C10.625 2.79426 13.3112 -0.163977 16.6856 0.630415C25.0774 2.60604 35.6 10.4242 40.9335 30.3359M10.625 15.2538H42.6875M10.625 15.2538V30.3359M40.9335 30.3359H10.625" stroke="#1F1F1F" stroke-linecap="round" stroke-linejoin="round"/>
</svg>
