<svg width="24" height="24" viewBox="0 0 24 24" fill="none" xmlns="http://www.w3.org/2000/svg">
<path d="M11.9695 10.132C11.9695 10.356 12.1495 10.532 12.3695 10.532C12.8255 10.532 13.1935 10.904 13.1935 11.356C13.1935 11.576 13.3735 11.756 13.5935 11.756C13.8135 11.756 13.9935 11.576 13.9935 11.356C13.9935 10.46 13.2655 9.73199 12.3695 9.73199C12.1495 9.73199 11.9695 9.91199 11.9695 10.132ZM18.4815 11.756C18.7055 11.756 18.8815 11.576 18.8815 11.356C18.8815 7.76399 15.9615 4.84399 12.3695 4.84399C12.1495 4.84399 11.9695 5.02399 11.9695 5.24399C11.9695 5.46399 12.1495 5.64399 12.3695 5.64399C15.5215 5.64399 18.0815 8.20799 18.0815 11.356C18.0815 11.576 18.2615 11.756 18.4815 11.756Z" fill="white"/>
<path d="M15.6377 11.356C15.6377 11.576 15.8177 11.756 16.0377 11.756C16.2577 11.756 16.4377 11.576 16.4377 11.356C16.4377 9.11202 14.6137 7.28802 12.3697 7.28802C12.1497 7.28802 11.9697 7.46802 11.9697 7.68802C11.9697 7.91202 12.1497 8.08802 12.3697 8.08802C14.1737 8.08802 15.6377 9.55602 15.6377 11.356ZM12.3697 2.40002C12.1497 2.40002 11.9697 2.58002 11.9697 2.80002C11.9697 3.02002 12.1497 3.20002 12.3697 3.20002C16.8697 3.20002 20.5297 6.86002 20.5297 11.356C20.5297 11.576 20.7057 11.756 20.9297 11.756C21.1497 11.756 21.3297 11.576 21.3297 11.356C21.3297 6.41602 17.3097 2.40002 12.3697 2.40002ZM16.2777 15.572L15.7537 15.856C14.8697 16.34 13.7497 16.176 13.0337 15.46L8.80966 11.236C8.09366 10.52 7.92966 9.40002 8.41366 8.51202L8.69766 7.99202C9.01766 7.40002 9.13366 6.73602 9.03766 6.07202C8.94697 5.40937 8.64051 4.79504 8.16566 4.32402C7.58166 3.74002 6.80566 3.42002 5.97766 3.42002C5.14966 3.42002 4.36966 3.74002 3.78566 4.32402L3.58166 4.53202C2.50166 5.61202 2.37766 7.47202 3.22966 9.77602C4.03366 11.976 5.65366 14.36 7.78166 16.488C11.0257 19.732 14.6377 21.6 17.2297 21.6C18.2537 21.6 19.1217 21.308 19.7377 20.692L19.9457 20.484C20.2337 20.1963 20.4622 19.8546 20.618 19.4785C20.7738 19.1023 20.8539 18.6992 20.8537 18.292C20.8481 17.4722 20.5222 16.687 19.9457 16.104C18.9817 15.14 17.4737 14.924 16.2777 15.572Z" fill="white"/>
</svg>
