<svg width="40" height="40" viewBox="0 0 40 40" fill="none" xmlns="http://www.w3.org/2000/svg">
<g opacity="0.3" clip-path="url(#clip0_177_100)">
<path d="M20 0.625C16.168 0.625 12.422 1.76132 9.23584 3.89028C6.04963 6.01923 3.56629 9.04519 2.09984 12.5855C0.633395 16.1258 0.249705 20.0215 0.997294 23.7799C1.74488 27.5383 3.59017 30.9905 6.29981 33.7002C9.00946 36.4098 12.4618 38.2551 16.2201 39.0027C19.9785 39.7503 23.8742 39.3666 27.4145 37.9002C30.9548 36.4337 33.9808 33.9504 36.1097 30.7642C38.2387 27.578 39.375 23.832 39.375 20C39.369 14.8633 37.3259 9.93861 33.6936 6.30638C30.0614 2.67416 25.1367 0.630955 20 0.625ZM20 38.125C16.4152 38.125 12.9109 37.062 9.9303 35.0704C6.94966 33.0788 4.62653 30.248 3.25469 26.9361C1.88285 23.6242 1.52392 19.9799 2.22328 16.464C2.92263 12.9481 4.64887 9.71852 7.1837 7.18369C9.71852 4.64886 12.9481 2.92262 16.464 2.22327C19.9799 1.52391 23.6242 1.88285 26.9361 3.25468C30.2481 4.62652 33.0788 6.94965 35.0704 9.93029C37.062 12.9109 38.125 16.4152 38.125 20C38.1197 24.8054 36.2084 29.4125 32.8105 32.8105C29.4125 36.2084 24.8054 38.1197 20 38.125Z" fill="black"/>
<path d="M33.6564 22.2499C32.3439 17.9774 28.5495 10.3124 17.8332 6.97365C17.4514 6.85359 17.0441 6.8402 16.6552 6.93494C16.2663 7.02967 15.9108 7.22893 15.627 7.51115C15.3507 7.77926 15.1544 8.119 15.0603 8.49232C14.9661 8.86565 14.9777 9.25781 15.0939 9.6249C16.4064 13.8974 20.2007 21.5624 30.917 24.9012C31.1308 24.967 31.3533 25.0003 31.577 24.9999C31.8644 25.0003 32.149 24.944 32.4147 24.8343C32.6803 24.7245 32.9217 24.5636 33.1251 24.3605C33.4005 24.0925 33.5961 23.7532 33.6899 23.3805C33.7837 23.0078 33.7721 22.6164 33.6564 22.2499ZM32.2414 23.4749C32.1192 23.5974 31.9656 23.6837 31.7975 23.7242C31.6294 23.7648 31.4534 23.7581 31.2889 23.7049C21.1201 20.538 17.5264 13.2924 16.2889 9.25553C16.2425 9.10654 16.2385 8.9476 16.2774 8.79648C16.3162 8.64537 16.3964 8.50805 16.5089 8.3999C16.5953 8.31276 16.6981 8.24359 16.8113 8.19639C16.9246 8.14919 17.0461 8.1249 17.1688 8.1249C17.2681 8.12516 17.3667 8.14033 17.4614 8.1699C27.6301 11.3368 31.2239 18.5824 32.4614 22.6193C32.5077 22.7683 32.5117 22.9272 32.4728 23.0783C32.434 23.2294 32.3538 23.3668 32.2414 23.4749ZM9.08323 15.7268C8.70141 15.6069 8.29408 15.5935 7.90524 15.6883C7.51641 15.783 7.16085 15.9822 6.87698 16.2643C6.60122 16.5321 6.40534 16.8713 6.3112 17.244C6.21705 17.6167 6.22836 18.0083 6.34385 18.3749C7.65635 22.6474 11.4507 30.3124 22.167 33.6512C22.3808 33.717 22.6033 33.7503 22.827 33.7499C23.1144 33.7503 23.399 33.694 23.6647 33.5843C23.9303 33.4745 24.1717 33.3136 24.3751 33.1105C24.6503 32.843 24.8458 32.5043 24.94 32.1322C25.0341 31.7601 25.0231 31.3692 24.9082 31.003C23.5964 26.7305 19.7995 19.0624 9.08323 15.7268ZM23.4914 32.2268C23.3692 32.3492 23.2156 32.4355 23.0475 32.4761C22.8794 32.5167 22.7034 32.51 22.5389 32.4568C12.3701 29.2899 8.77635 22.0443 7.53885 18.0074C7.4925 17.8584 7.48853 17.6995 7.52739 17.5484C7.56624 17.3972 7.64639 17.2599 7.75885 17.1518C7.8451 17.0643 7.94784 16.9948 8.06113 16.9473C8.17442 16.8997 8.296 16.8751 8.41885 16.8749C8.51806 16.8752 8.61666 16.8903 8.71135 16.9199C18.8801 20.0868 22.4739 27.3324 23.7114 31.3693C23.7577 31.5183 23.7617 31.6772 23.7228 31.8283C23.684 31.9794 23.6038 32.1168 23.4914 32.2249V32.2268Z" fill="black"/>
<path d="M20.625 3.125H19.375V4.375H20.625V3.125Z" fill="black"/>
<path d="M18.125 3.125H16.875V4.375H18.125V3.125Z" fill="black"/>
<path d="M19.375 4.375H18.125V5.625H19.375V4.375Z" fill="black"/>
<path d="M23.125 4.375H21.875V5.625H23.125V4.375Z" fill="black"/>
<path d="M18.75 35H17.5V36.25H18.75V35Z" fill="black"/>
<path d="M16.25 35H15V36.25H16.25V35Z" fill="black"/>
<path d="M17.5 33.75H16.25V35H17.5V33.75Z" fill="black"/>
<path d="M13.75 33.75H12.5V35H13.75V33.75Z" fill="black"/>
</g>
<defs>
<clipPath id="clip0_177_100">
<rect width="40" height="40" fill="white"/>
</clipPath>
</defs>
</svg>
