<svg width="36" height="42" viewBox="0 0 36 42" fill="none" xmlns="http://www.w3.org/2000/svg">
<path d="M17.75 20.75L28.8514 14.5635C32.4952 12.5329 34.75 8.7132 34.75 4.57143C34.75 2.46093 33.023 0.75 30.8927 0.75H4.60726C2.47697 0.75 0.75 2.46093 0.75 4.57143C0.75 8.7132 3.0049 12.5329 6.6486 14.5635L9.25 16.0132M17.75 20.75L6.6486 26.9365C3.0049 28.9671 0.75 32.7868 0.75 36.9285C0.75 39.0391 2.47697 40.75 4.60726 40.75H30.8927C33.023 40.75 34.75 39.0391 34.75 36.9285C34.75 32.7868 32.4952 28.9671 28.8514 26.9365L17.75 20.75Z" stroke="#D7D2C2" stroke-width="1.5" stroke-linecap="round" stroke-linejoin="round"/>
</svg>
