<svg width="260" height="36" viewBox="0 0 260 36" fill="none" xmlns="http://www.w3.org/2000/svg">
<g clip-path="url(#clip0_177_30)">
<path d="M151.363 10.5638L145.303 25.3797H146.169L147.9 21.1364H153.527L155.258 25.3797H157.494L151.363 10.5638ZM148.189 20.3455L150.641 14.3041L153.094 20.3455H148.189ZM138.807 16.7495H131.02V10.9207H128.856V25.3797H131.02V17.6122H138.807V25.3797H140.971V10.9234H138.807V16.7495ZM173.509 10.7782H185.7V11.3539H180.578V25.3797H178.562V11.3557H173.584V10.7782H173.509ZM191.038 24.8022H198.035V25.3779H189.018V10.7782H191.038V24.8022ZM226.168 10.7782H226.6V25.2363L216.502 14.4485V25.3053H216.068V10.6365L226.167 21.3525L226.168 10.7782ZM250.983 10.8499H253.003V25.3771H250.983V10.8499ZM260 10.8499V25.3771H257.982V10.8499H260ZM236.34 10.8499H230.424V25.3771H236.34C239.802 25.3771 242.546 22.5003 242.546 18.1135C242.471 13.7284 239.802 10.8517 236.34 10.8517V10.8499ZM235.98 24.8022H232.445V11.3512H235.98C238.433 11.3512 240.453 14.0844 240.453 18.1117C240.453 22.1389 238.504 24.804 235.979 24.804L235.98 24.8022ZM172.283 25.3779H170.119L166.223 20.7033C166.803 20.6805 167.368 20.5181 167.87 20.23C168.373 19.9419 168.798 19.5365 169.109 19.0488C169.109 19.0393 169.11 19.0299 169.114 19.0212C169.117 19.0124 169.123 19.0045 169.129 18.9978C169.136 18.9911 169.144 18.9858 169.153 18.9822C169.162 18.9787 169.171 18.9769 169.181 18.977C169.326 18.8022 169.447 18.6085 169.54 18.4013C169.546 18.3462 169.571 18.2951 169.612 18.2579C169.997 17.5002 170.195 16.6618 170.19 15.8125V15.4538C170.231 14.5956 169.994 13.7471 169.513 13.0341C169.032 12.321 168.334 11.7815 167.521 11.4956C167.215 11.4113 166.9 11.3631 166.583 11.3521H163.265V25.3797H161.245V10.8526H167.593C169.901 10.8526 171.921 13.1536 171.921 15.9586C171.921 18.5475 170.482 20.5616 168.675 20.8494L172.283 25.3779ZM206.764 10.5621L200.705 25.3779H201.57L203.302 21.1346H208.928L210.66 25.3779H212.896L206.764 10.5621ZM203.59 20.3437L206.043 14.3023L208.496 20.3437H203.59ZM82.0389 17.1809C82.6881 17.0085 83.2608 16.6247 83.666 16.0904C84.0712 15.5561 84.2855 14.9021 84.2749 14.2324C84.2749 11.9314 82.1109 10.9243 79.4414 10.9243H76.3401V25.3797H80.3795C83.4088 25.3797 86.0783 24.1575 86.0783 21.3525C86.0792 19.1223 84.4197 17.6122 82.0389 17.1809ZM80.2356 24.5879H78.5041V17.6113V16.8204V11.787H79.6581C81.6782 11.787 82.3267 12.7223 82.3267 14.2324C82.3267 14.4485 82.4706 16.893 80.5234 17.3252C81.3308 17.5198 82.0755 17.9157 82.6874 18.4758C83.0791 18.8266 83.3863 19.261 83.5861 19.7467C83.7859 20.2324 83.8732 20.7568 83.8414 21.2808C83.8423 23.1531 82.7603 24.5879 80.2356 24.5879ZM49.5774 16.1021C48.2787 15.1668 46.5481 14.3041 46.5481 12.794C46.5481 11.5718 47.7021 10.8526 49.2896 10.8526C50.3928 10.8576 51.4707 11.1826 52.3918 11.7879L51.5976 10.4195C50.858 10.1552 50.0748 10.0334 49.2896 10.0608C47.1975 10.0608 44.7448 10.9234 44.7448 13.4415C44.7448 15.3829 46.3314 16.5343 48.857 18.404C50.0829 19.2667 51.9591 20.6333 51.9591 22.2878C51.9591 23.8696 50.7332 24.8049 48.785 24.8049C47.179 24.7759 45.6392 24.1619 44.4561 23.0787L45.4661 24.8049C46.5043 25.2888 47.6382 25.534 48.7841 25.5223C50.6595 25.5223 53.9784 24.8749 53.9784 21.5668C53.9784 19.2667 52.3189 17.9718 49.5774 16.1021ZM64.5818 10.632C60.6863 10.632 57.6562 13.7966 57.6562 18.1117C57.6562 22.4985 60.6854 25.5914 64.5818 25.5914C68.4781 25.5914 71.5074 22.4985 71.5074 18.1117C71.4391 13.8728 68.4053 10.6365 64.5818 10.6365V10.632ZM64.5818 24.8722C61.6964 24.8722 59.8211 22.1389 59.8211 18.1834C59.8211 14.2279 61.6964 11.4956 64.5818 11.4956C67.4672 11.4956 69.3425 14.2288 69.3425 18.1843C69.3434 22.0717 67.3916 24.8767 64.5818 24.8767V24.8722ZM113.635 10.5603L107.506 25.3797H108.372L110.103 21.1364H115.727L117.459 25.3797H119.695L113.635 10.5603ZM110.461 20.3455L112.914 14.3041L115.367 20.3455H110.461ZM101.155 16.7495H93.3646V10.9207H91.2006V25.3797H93.3646V17.5405H101.155V25.3053H103.32V10.9234H101.155V16.7522V16.7495Z" fill="#1F1F1F"/>
</g>
<path d="M35.7791 17.8357C35.777 16.2295 35.1573 14.6852 34.0477 13.5206C34.446 11.9608 34.2127 10.3074 33.3983 8.91767C32.5861 7.52509 31.2697 6.49564 29.7196 6.04094C29.2635 4.49554 28.231 3.18305 26.8342 2.37328C25.4403 1.56128 23.7819 1.32872 22.2174 1.72583C21.0505 0.61794 19.5008 0 17.8894 0C16.2779 0 14.7283 0.61794 13.5613 1.72583C11.9968 1.32872 10.3384 1.56128 8.94449 2.37328C7.54772 3.18305 6.51517 4.49554 6.0591 6.04094C4.50905 6.49564 3.19262 7.52509 2.38041 8.91767C1.56598 10.3074 1.33271 11.9608 1.73102 13.5206C0.619796 14.6841 0 16.2291 0 17.8357C0 19.4423 0.619796 20.9873 1.73102 22.1508C1.33271 23.7106 1.56598 25.364 2.38041 26.7538C3.19262 28.1464 4.50905 29.1758 6.0591 29.6305C6.51517 31.1759 7.54772 32.4884 8.94449 33.2982C10.3384 34.1102 11.9968 34.3427 13.5613 33.9456C14.7283 35.0535 16.2779 35.6714 17.8894 35.6714C19.5008 35.6714 21.0505 35.0535 22.2174 33.9456C23.7819 34.3427 25.4403 34.1102 26.8342 33.2982C28.231 32.4884 29.2635 31.1759 29.7196 29.6305C31.2697 29.1758 32.5861 28.1464 33.3983 26.7538C34.2127 25.364 34.446 23.7106 34.0477 22.1508C35.152 20.9829 35.7707 19.4408 35.7791 17.8357ZM34.841 17.8357C34.8334 19.0352 34.4276 20.1985 33.687 21.1438C33.1544 19.9129 32.2457 18.8811 31.0904 18.1953C30.8657 18.0475 30.6242 17.9271 30.3708 17.8366C30.6479 17.7472 30.9141 17.6269 31.1641 17.4779C32.3147 16.819 33.2244 15.8112 33.7608 14.6012C34.4581 15.5367 34.8369 16.6702 34.8419 17.8357H34.841ZM28.2751 25.1719C28.9239 26.2784 29.1301 27.5882 28.8526 28.8396C27.5883 29.091 26.2754 28.8599 25.1739 28.1921C24.4009 27.7679 23.754 27.1476 23.2986 26.3942C22.6221 25.2717 22.3905 23.9378 22.6492 22.6539C23.9457 22.4136 25.2854 22.6698 26.4007 23.3713C27.1897 23.775 27.8422 24.4012 28.2769 25.1719H28.2751ZM23.2275 29.4126C23.2153 30.6799 22.7555 31.9023 21.9287 32.865C20.7375 32.4328 19.7399 31.5912 19.1153 30.4914C18.7019 29.7116 18.4567 28.8542 18.3957 27.9742C18.3857 26.6597 18.8462 25.3847 19.6945 24.3783C20.935 24.7949 21.9678 25.6702 22.5799 26.8237C22.9799 27.6302 23.2008 28.5133 23.2275 29.4126ZM17.3812 27.9778C17.3546 28.8634 17.1073 29.7285 16.6616 30.495C16.009 31.5993 14.9876 32.4395 13.7762 32.8686C12.9495 31.9059 12.4896 30.6835 12.4775 29.4162C12.4625 28.5344 12.6885 27.6652 13.1314 26.9017C13.7723 25.7437 14.8287 24.8702 16.0887 24.4563C16.5279 24.9291 16.8688 25.484 17.0918 26.0889C17.3147 26.6937 17.4152 27.3367 17.3875 27.9805L17.3812 27.9778ZM12.3318 26.396C11.8763 27.1494 11.2294 27.7697 10.4564 28.1939C9.34665 28.8408 8.03294 29.0464 6.77774 28.7696C6.52557 27.5092 6.75733 26.2002 7.42713 25.102C7.85269 24.3313 8.47478 23.6864 9.2305 23.2323C10.3564 22.5579 11.6943 22.327 12.982 22.5848C13.1458 23.2303 13.1726 23.9028 13.0608 24.5592C12.9489 25.2156 12.701 25.8415 12.3327 26.3969L12.3318 26.396ZM7.4982 10.4341C6.84943 9.32759 6.64322 8.01783 6.92076 6.7664C8.18504 6.51498 9.49792 6.74605 10.5994 7.41384C11.3724 7.83812 12.0193 8.45834 12.4748 9.2118C13.1512 10.3343 13.3828 11.6682 13.1242 12.9521C11.8277 13.1924 10.488 12.9362 9.37262 12.2347C8.56944 11.8499 7.91302 11.2159 7.50179 10.4278L7.4982 10.4341ZM12.5476 6.26243C12.5598 4.99513 13.0197 3.77268 13.8464 2.80999C15.0464 3.25888 16.0619 4.09423 16.7318 5.18365C17.1452 5.96343 17.3903 6.82087 17.4513 7.7008C17.4614 9.01533 17.0008 10.2903 16.1525 11.2967C14.9121 10.8801 13.8793 10.0048 13.2672 8.85131C12.812 8.06097 12.5656 7.1683 12.5512 6.25705L12.5476 6.26243ZM18.3939 7.62906C18.4205 6.74346 18.6677 5.87839 19.1135 5.11192C19.7661 4.00763 20.7875 3.16738 21.9989 2.73825C22.8256 3.70094 23.2855 4.9234 23.2977 6.19069C23.3145 7.07296 23.09 7.94315 22.6483 8.70783C22.0177 9.84645 20.9916 10.7161 19.7629 11.1532C19.2894 10.7018 18.9212 10.1522 18.6843 9.54317C18.4474 8.93418 18.3477 8.28073 18.3921 7.62906H18.3939ZM23.4434 9.28354C23.8988 8.53008 24.5457 7.90986 25.3187 7.48558C26.4285 6.83875 27.7422 6.63316 28.9974 6.90987C29.2495 8.17036 29.0178 9.47931 28.348 10.5775C27.9224 11.3482 27.3003 11.9931 26.5446 12.4472C25.4187 13.1216 24.0808 13.3525 22.7931 13.0947C22.6264 12.4495 22.598 11.7765 22.7099 11.1196C22.8218 10.4627 23.0715 9.83679 23.4425 9.28264L23.4434 9.28354ZM28.0602 17.4107C26.7396 17.4329 25.4566 16.9723 24.4534 16.1158C24.8713 14.879 25.7492 13.8493 26.9062 13.239C27.6732 12.7986 28.546 12.5748 29.4309 12.5916C30.702 12.6037 31.9281 13.0622 32.8937 13.8865C32.4435 15.0829 31.6056 16.0953 30.5129 16.7632C29.743 17.1271 28.9118 17.3445 28.062 17.4044L28.0602 17.4107ZM24.5254 21.654C24.0231 21.5821 23.513 21.5821 23.0107 21.654C23.1026 21.4239 23.2235 21.2063 23.3705 21.0066L23.8031 20.3591C23.9727 20.8248 24.2169 21.26 24.5263 21.6478L24.5254 21.654ZM21.712 24.459C21.2955 24.1694 20.8618 23.9053 20.4132 23.6681L21.0626 23.2368C21.2646 23.1112 21.4831 23.0143 21.712 22.9489C21.6408 23.4477 21.6411 23.954 21.7129 24.4527L21.712 24.459ZM15.3637 23.6681C14.8971 23.8722 14.4602 24.1383 14.065 24.459C14.1371 23.9582 14.1371 23.4497 14.065 22.9489C14.2958 23.0405 14.5141 23.161 14.7144 23.3076C14.9453 23.3977 15.1638 23.5167 15.3647 23.6618L15.3637 23.6681ZM11.2515 13.9591C11.7538 14.031 12.2639 14.031 12.7662 13.9591C12.6743 14.1893 12.5534 14.4069 12.4064 14.6066L11.9738 15.254C11.7904 14.7911 11.5483 14.3535 11.2533 13.952L11.2515 13.9591ZM11.6113 17.8429C11.6268 18.0843 11.6024 18.3267 11.5394 18.5603C11.1227 18.2515 10.6602 18.0094 10.1686 17.8429C10.6471 17.6473 11.1061 17.4071 11.5394 17.1255C11.6026 17.3567 11.6278 17.5965 11.614 17.8357L11.6113 17.8429ZM12.0439 20.2883L12.4766 20.9357C12.6025 21.1371 12.6997 21.355 12.7653 21.5832C12.263 21.5113 11.7529 21.5113 11.2506 21.5832C11.5738 21.1871 11.8416 20.7491 12.0466 20.2811L12.0439 20.2883ZM14.0641 11.2268C14.4806 11.5164 14.9143 11.7805 15.3629 12.0177L14.7135 12.449C14.5115 12.5746 14.2929 12.6715 14.0641 12.7369C14.1375 12.2338 14.1381 11.7228 14.0659 11.2196L14.0641 11.2268ZM20.4123 12.0177C20.8789 11.8136 21.3158 11.5475 21.7111 11.2268C21.6389 11.7276 21.6389 12.2361 21.7111 12.7369C21.4802 12.6453 21.262 12.5248 21.0617 12.3782C20.8319 12.2835 20.6152 12.1599 20.4168 12.0105L20.4123 12.0177ZM23.7303 15.3258L23.2977 14.6783C23.1717 14.4769 23.0745 14.259 23.0089 14.0309C23.5112 14.1028 24.0213 14.1028 24.5236 14.0309C24.2188 14.4335 23.954 14.8648 23.733 15.3186L23.7303 15.3258ZM24.1629 17.8429C24.1475 17.6015 24.1718 17.3591 24.2349 17.1255C24.6516 17.4343 25.114 17.6763 25.6056 17.8429C25.1271 18.0385 24.6681 18.2787 24.2349 18.5603C24.1719 18.3242 24.1485 18.0794 24.1656 17.8357L24.1629 17.8429ZM18.6764 11.5137C18.4596 11.5137 18.1718 11.5855 17.9568 11.5855C17.7146 11.6009 17.4716 11.5766 17.2373 11.5137C17.547 11.0983 17.7897 10.6372 17.9568 10.1471C18.0972 10.6473 18.3448 11.1111 18.6827 11.5065L18.6764 11.5137ZM8.80058 13.092C9.96206 13.731 10.8382 14.7843 11.2533 16.0405C10.2439 16.8862 8.96508 17.3453 7.6466 17.3353H7.57464C6.68639 17.3089 5.81873 17.0623 5.04994 16.618C3.94233 15.9673 3.09955 14.949 2.66913 13.7412C3.63472 12.917 4.86085 12.4585 6.13196 12.4463C7.05588 12.4813 7.96334 12.7009 8.80058 13.092ZM7.6448 18.2671C8.96739 18.2324 10.2548 18.6946 11.2515 19.5619C10.8337 20.7987 9.95576 21.8284 8.79878 22.4387C8.0318 22.8791 7.15899 23.1029 6.27406 23.0861C5.00296 23.074 3.77683 22.6155 2.81125 21.7912C3.26149 20.5948 4.09935 19.5824 5.19205 18.9145C5.9435 18.5001 6.78614 18.2777 7.6448 18.2671ZM17.0943 24.0958C17.311 24.0958 17.5988 24.0241 17.8138 24.0241C18.056 24.0087 18.299 24.033 18.5334 24.0958C18.2236 24.5113 17.9809 24.9724 17.8138 25.4625C17.6618 24.9656 17.4184 24.5013 17.0961 24.0932L17.0943 24.0958ZM26.9826 22.5077C25.8212 21.8687 24.945 20.8154 24.5299 19.5592C25.5393 18.7135 26.8181 18.2544 28.1366 18.2644C29.0249 18.2908 29.8925 18.5374 30.6613 18.9818C31.7689 19.6324 32.6117 20.6507 33.0421 21.8585C32.0765 22.6827 30.8504 23.1412 29.5793 23.1534C28.6707 23.1796 27.7724 22.9563 26.9826 22.5077ZM32.5376 9.41536C33.131 10.4367 33.36 11.6284 33.1869 12.7961C32.1296 11.9905 30.8317 11.562 29.5011 11.5792C29.2108 11.5673 28.9201 11.5914 28.6358 11.6509C28.8207 11.4239 28.9893 11.1842 29.1404 10.9335C29.8199 9.7851 30.0988 8.44466 29.9337 7.1215C31.0454 7.55771 31.9662 8.37225 32.5331 9.42074L32.5376 9.41536ZM26.4061 3.22787C27.4461 3.82015 28.2393 4.76391 28.6421 5.88849C27.315 5.72385 25.9705 6.00196 24.8186 6.67941C24.5624 6.82262 24.3214 6.99116 24.0991 7.18248C24.1588 6.89901 24.183 6.60924 24.171 6.31982C24.1692 4.9764 23.7361 3.66882 22.9352 2.5885C24.1308 2.40855 25.3524 2.63671 26.4016 3.23594L26.4061 3.22787ZM17.9613 0.934912C19.1644 0.942485 20.3311 1.34705 21.2793 2.08543C20.0448 2.61647 19.0098 3.52247 18.322 4.67431C18.1738 4.89825 18.053 5.1391 17.9622 5.3917C17.8726 5.11539 17.7519 4.85007 17.6024 4.60077C16.9416 3.45361 15.9307 2.54665 14.7171 2.01189C15.65 1.30646 16.7904 0.927868 17.9613 0.934912ZM9.44906 3.1642C10.4732 2.57269 11.6681 2.34448 12.839 2.51676C12.0306 3.56829 11.599 4.8596 11.6131 6.18441C11.6012 6.47383 11.6253 6.7636 11.6851 7.04707C11.4574 6.86273 11.2169 6.69463 10.9655 6.544C9.81362 5.86655 8.46916 5.58844 7.14203 5.75308C7.64418 4.68585 8.44583 3.7866 9.44997 3.1642H9.44906ZM3.24297 9.35169C3.83703 8.31478 4.78363 7.52402 5.91159 7.1224C5.74645 8.44556 6.02541 9.78599 6.70489 10.9344C6.84854 11.1898 7.01758 11.4302 7.20948 11.6518C6.92515 11.5923 6.6345 11.5682 6.34422 11.5801C4.99479 11.5771 3.67994 12.0055 2.59267 12.8023C2.44982 11.6117 2.67781 10.4061 3.24568 9.349L3.24297 9.35169ZM0.935021 17.7667C0.942616 16.5672 1.3484 15.4039 2.089 14.4586C2.62164 15.6895 3.53036 16.7213 4.68567 17.4071C4.91029 17.5549 5.15186 17.6753 5.40522 17.7658C5.14576 17.8414 4.90203 17.9629 4.68567 18.1245C3.53505 18.7834 2.62537 19.7912 2.089 21.0012C1.33956 20.0883 0.932476 18.9437 0.937718 17.764L0.935021 17.7667ZM3.24297 26.2534C2.64948 25.2321 2.42057 24.0404 2.59358 22.8727C3.64828 23.6787 4.94347 24.109 6.27226 24.0949C6.56255 24.1069 6.8532 24.0828 7.13752 24.0232C6.95263 24.2502 6.78401 24.4899 6.63294 24.7406C5.95345 25.889 5.6745 27.2295 5.83963 28.5526C4.74421 28.0912 3.83233 27.282 3.24568 26.2507L3.24297 26.2534ZM9.37442 32.4409C8.33375 31.8459 7.54142 30.8988 7.14112 29.7713C8.46826 29.9359 9.81273 29.6578 10.9646 28.9804C11.2208 28.8372 11.4618 28.6686 11.6842 28.4773C11.6244 28.7608 11.6003 29.0505 11.6122 29.34C11.6092 30.6853 12.0389 31.9962 12.8381 33.0803C11.6455 33.224 10.4373 32.999 9.37712 32.4355L9.37442 32.4409ZM17.8147 34.6702C16.6116 34.6626 15.4449 34.258 14.4967 33.5197C15.7312 32.9886 16.7662 32.0826 17.454 30.9308C17.6022 30.7068 17.723 30.466 17.8138 30.2134C17.9035 30.4897 18.0242 30.755 18.1736 31.0043C18.8345 32.1515 19.8453 33.0584 21.059 33.5932C20.1261 34.2961 18.9867 34.6728 17.8174 34.6648L17.8147 34.6702ZM26.3269 32.4409C25.3028 33.0324 24.1079 33.2606 22.937 33.0883C23.7454 32.0368 24.177 30.7455 24.1629 29.4207C24.1749 29.1313 24.1507 28.8415 24.091 28.558C24.3187 28.7423 24.5591 28.9105 24.8105 29.0611C25.9624 29.7385 27.3069 30.0166 28.634 29.852C28.1719 30.9425 27.3619 31.8505 26.3297 32.4355L26.3269 32.4409ZM32.5331 26.3278C31.9371 27.3634 30.9893 28.1522 29.8608 28.5517C30.026 27.2286 29.747 25.8881 29.0675 24.7397C28.9239 24.4843 28.7548 24.244 28.5629 24.0223C28.8473 24.0819 29.1379 24.106 29.4282 24.0941C30.7776 24.097 32.0925 23.6686 33.1797 22.8718C33.3239 24.0609 33.0982 25.2655 32.5331 26.3224V26.3278ZM28.9983 17.7694C28.9902 19.9609 28.3323 22.1011 27.1074 23.9208C25.8825 25.7405 24.1453 27.1586 22.1142 27.9965C20.0831 28.8344 17.8488 29.0549 15.6924 28.6302C13.5359 28.2054 11.5536 27.1544 9.99471 25.6094C8.4358 24.0644 7.36991 22.0942 6.93111 19.9468C6.49231 17.7994 6.70017 15.5706 7.52857 13.5406C8.35697 11.5107 9.76892 9.77026 11.5868 8.53826C13.4047 7.30627 15.5474 6.6377 17.7454 6.61664C19.221 6.60262 20.6847 6.88086 22.0516 7.43521C23.4185 7.98956 24.6614 8.809 25.7082 9.84597C26.755 10.8829 27.5849 12.1168 28.1496 13.476C28.7144 14.8353 29.0029 16.2928 28.9983 17.764V17.7694Z" fill="#1F1F1F"/>
<defs>
<clipPath id="clip0_177_30">
<rect width="215.544" height="15.4922" fill="white" transform="translate(44.4561 10.1036)"/>
</clipPath>
</defs>
</svg>
