<svg width="18" height="18" viewBox="0 0 18 18" fill="none" xmlns="http://www.w3.org/2000/svg">
<path d="M13.9281 18H4.07191C1.82666 18 0 16.1734 0 13.9281V4.07188C0 1.82664 1.82666 0 4.07191 0H13.9281C16.1734 0 18 1.82664 18 4.07188V13.9281C18 16.1734 16.1734 18 13.9281 18ZM4.07191 1.78858C2.81609 1.78858 1.78861 2.81607 1.78861 4.07188V13.9281C1.78861 15.1839 2.81609 16.2114 4.07191 16.2114H13.9281C15.184 16.2114 16.2114 15.1839 16.2114 13.9281V4.07188C16.2114 2.81607 15.184 1.78858 13.9281 1.78858H4.07191ZM9.01905 13.6998C6.46937 13.6998 4.37632 11.6068 4.37632 9.05708C4.37632 6.5074 6.46937 4.41438 9.01905 4.41438C11.5687 4.41438 13.6617 6.5074 13.6617 9.05708C13.6617 11.6068 11.5687 13.6998 9.01905 13.6998ZM9.01905 6.20296C7.4588 6.20296 6.16493 7.49683 6.16493 9.05708C6.16493 10.6173 7.4588 11.9112 9.01905 11.9112C10.5793 11.9112 11.8732 10.6173 11.8732 9.05708C11.8732 7.45877 10.5793 6.20296 9.01905 6.20296ZM13.852 3.23467C13.2051 3.23467 12.6723 3.76744 12.6723 4.41438C12.6723 5.06131 13.2051 5.59408 13.852 5.59408C14.4989 5.59408 15.0317 5.06131 15.0317 4.41438C15.0317 3.76744 14.4989 3.23467 13.852 3.23467Z" fill="#212427"/>
</svg>
