<svg width="19" height="18" viewBox="0 0 19 18" fill="none" xmlns="http://www.w3.org/2000/svg">
<path d="M18.9 11.0471V18H14.8576V11.5059C14.8576 9.88236 14.2548 8.75294 12.8009 8.75294C11.6662 8.75294 11.028 9.49412 10.7088 10.2353C10.6024 10.4824 10.567 10.8706 10.567 11.2235V18H6.52457C6.52457 18 6.59549 6.98824 6.52457 5.85883H10.567V7.58824L10.5315 7.62353H10.567V7.58824C11.0989 6.77647 12.0563 5.57647 14.2193 5.57647C16.9143 5.57647 18.9 7.30588 18.9 11.0471ZM2.30488 0C0.921951 0 0 0.91765 0 2.08236C0 3.24706 0.886498 4.16471 2.23396 4.16471H2.26942C3.6878 4.16471 4.57429 3.24706 4.57429 2.08236C4.53883 0.91765 3.6878 0 2.30488 0ZM0.248222 18H4.29062V5.85883H0.248222V18Z" fill="#212427"/>
</svg>
