<svg width="21" height="24" viewBox="0 0 21 24" fill="none" xmlns="http://www.w3.org/2000/svg">
<g opacity="0.2">
<path d="M10.0934 12.7329C11.8754 12.7329 13.32 11.2882 13.32 9.50621C13.32 7.72417 11.8754 6.27954 10.0934 6.27954C8.31133 6.27954 6.8667 7.72417 6.8667 9.50621C6.8667 11.2882 8.31133 12.7329 10.0934 12.7329Z" stroke="#3C2300" stroke-width="2"/>
<path d="M19.1867 9.99999C19.1867 17 10.0933 23 10.0933 23C10.0933 23 1 17 1 9.99999C1 7.61305 1.95806 5.32388 3.66338 3.63604C5.3687 1.9482 7.68164 1 10.0933 1C12.505 1 14.818 1.9482 16.5233 3.63604C18.2286 5.32388 19.1867 7.61305 19.1867 9.99999Z" stroke="#3C2300" stroke-width="2" stroke-linecap="round" stroke-linejoin="round"/>
</g>
</svg>
