<svg width="320" height="93" viewBox="0 0 320 93" fill="none" xmlns="http://www.w3.org/2000/svg">
<g clip-path="url(#clip0_177_24)">
<path d="M158.715 70.6832L149.719 92.6791H151.004L153.574 86.3794H161.928L164.499 92.6791H167.818L158.715 70.6832ZM154.003 85.2052L157.645 76.2361L161.286 85.2052H154.003ZM140.074 79.8666H128.515V71.2131H125.302V92.6791H128.515V81.1473H140.074V92.6791H143.287V71.2171H140.074V79.8666ZM191.594 71.0014H209.692V71.8561H202.089V92.6791H199.095V71.8588H191.706V71.0014H191.594ZM217.617 91.8218H228.006V92.6765H214.618V71.0014H217.617V91.8218ZM269.772 71.0014H270.414V92.4661L255.422 76.4505V92.5687H254.778V70.7911L269.771 86.7002L269.772 71.0014ZM306.613 71.1079H309.613V92.6752H306.613V71.1079ZM320 71.1079V92.6752H317.004V71.1079H320ZM284.873 71.1079H276.091V92.6752H284.873C290.014 92.6752 294.087 88.4043 294.087 81.8915C293.976 75.3814 290.014 71.1106 284.873 71.1106V71.1079ZM284.339 91.8218H279.091V71.8521H284.339C287.98 71.8521 290.98 75.91 290.98 81.8889C290.98 87.8678 288.086 91.8245 284.338 91.8245L284.339 91.8218ZM189.773 92.6765H186.561L180.777 85.7364C181.637 85.7026 182.476 85.4616 183.222 85.0338C183.969 84.606 184.599 84.0042 185.061 83.2801C185.061 83.2661 185.064 83.2521 185.069 83.2391C185.074 83.2261 185.082 83.2143 185.092 83.2044C185.102 83.1945 185.114 83.1866 185.127 83.1813C185.14 83.176 185.154 83.1734 185.168 83.1736C185.384 82.914 185.563 82.6265 185.702 82.3189C185.71 82.2371 185.748 82.1612 185.809 82.1059C186.381 80.981 186.674 79.7364 186.666 78.4754V77.9429C186.727 76.6689 186.375 75.4091 185.661 74.3506C184.948 73.292 183.911 72.491 182.704 72.0665C182.25 71.9413 181.783 71.8698 181.312 71.8535H176.386V92.6791H173.387V71.1119H182.811C186.238 71.1119 189.237 74.5281 189.237 78.6924C189.237 82.5359 187.1 85.526 184.418 85.9534L189.773 92.6765ZM240.965 70.6806L231.969 92.6765H233.254L235.824 86.3767H244.178L246.749 92.6765H250.068L240.965 70.6806ZM236.253 85.2025L239.895 76.2335L243.536 85.2025H236.253ZM55.7961 80.507C56.7599 80.2511 57.6102 79.6812 58.2117 78.888C58.8132 78.0948 59.1314 77.1239 59.1157 76.1296C59.1157 72.7135 55.9029 71.2184 51.9397 71.2184H47.3355V92.6791H53.3324C57.8298 92.6791 61.793 90.8646 61.793 86.7002C61.7943 83.3893 59.3307 81.1473 55.7961 80.507ZM53.1188 91.5036H50.5483V81.146V79.9718V72.4991H52.2615C55.2606 72.4991 56.2234 73.8877 56.2234 76.1296C56.2234 76.4505 56.437 80.0796 53.5461 80.7213C54.7449 81.0101 55.8504 81.5979 56.7589 82.4294C57.3404 82.9502 57.7965 83.5952 58.0931 84.3162C58.3897 85.0373 58.5193 85.8158 58.4721 86.5937C58.4734 89.3735 56.867 91.5036 53.1188 91.5036ZM7.60328 78.9054C5.67509 77.5169 3.10594 76.2361 3.10594 73.9942C3.10594 72.1796 4.81915 71.1119 7.17598 71.1119C8.81378 71.1193 10.414 71.6018 11.7815 72.5005L10.6024 70.4689C9.50443 70.0765 8.34165 69.8958 7.17598 69.9364C4.07004 69.9364 0.428636 71.2171 0.428636 74.9554C0.428636 77.8377 2.78413 79.5471 6.53369 82.3229C8.35372 83.6036 11.1392 85.6325 11.1392 88.0888C11.1392 90.4372 9.31916 91.8258 6.42687 91.8258C4.04256 91.7827 1.7565 90.8711 0 89.263L1.49956 91.8258C3.04082 92.5441 4.72426 92.9081 6.42553 92.8908C9.20966 92.8908 14.137 91.9296 14.137 87.0184C14.137 83.6036 11.6733 81.6812 7.60328 78.9054ZM29.879 70.7844C24.0957 70.7844 19.5971 75.4826 19.5971 81.8889C19.5971 88.4016 24.0944 92.9933 29.879 92.9933C35.6636 92.9933 40.1609 88.4016 40.1609 81.8889C40.0594 75.5958 35.5554 70.7911 29.879 70.7911V70.7844ZM29.879 91.9256C25.5953 91.9256 22.8112 87.8678 22.8112 81.9954C22.8112 76.123 25.5953 72.0665 29.879 72.0665C34.1627 72.0665 36.9468 76.1243 36.9468 81.9967C36.9481 87.7679 34.0505 91.9323 29.879 91.9323V91.9256ZM102.704 70.6779L93.6055 92.6791H94.8901L97.4606 86.3794H105.81L108.381 92.6791H111.7L102.704 70.6779ZM97.992 85.2052L101.633 76.2361L105.275 85.2052H97.992ZM84.1769 79.8666H72.6104V71.2131H69.3976V92.6791H72.6104V81.0408H84.1769V92.5687H87.3896V71.2171H84.1769V79.8706V79.8666Z" fill="white"/>
<path d="M186.559 26.4798C186.556 24.0951 185.636 21.8024 183.989 20.0735C184.58 17.7578 184.234 15.3031 183.025 13.2399C181.819 11.1724 179.865 9.64409 177.563 8.96903C176.886 6.67471 175.353 4.72617 173.28 3.52397C171.21 2.31847 168.748 1.9732 166.426 2.56277C164.693 0.917968 162.392 0.000564575 160 0.000564575C157.608 0.000564575 155.307 0.917968 153.574 2.56277C151.252 1.9732 148.79 2.31847 146.72 3.52397C144.647 4.72617 143.114 6.67471 142.437 8.96903C140.135 9.64409 138.181 11.1724 136.975 13.2399C135.766 15.3031 135.42 17.7578 136.011 20.0735C134.361 21.8008 133.441 24.0946 133.441 26.4798C133.441 28.8649 134.361 31.1587 136.011 32.886C135.42 35.2017 135.766 37.6564 136.975 39.7196C138.181 41.7871 140.135 43.3154 142.437 43.9905C143.114 46.2848 144.647 48.2333 146.72 49.4355C148.79 50.641 151.252 50.9863 153.574 50.3967C155.307 52.0415 157.608 52.9589 160 52.9589C162.392 52.9589 164.693 52.0415 166.426 50.3967C168.748 50.9863 171.21 50.641 173.28 49.4355C175.353 48.2333 176.886 46.2848 177.563 43.9905C179.865 43.3154 181.819 41.7871 183.025 39.7196C184.234 37.6564 184.58 35.2017 183.989 32.886C185.628 31.1521 186.547 28.8626 186.559 26.4798ZM185.167 26.4798C185.155 28.2605 184.553 29.9875 183.453 31.391C182.663 29.5636 181.314 28.0317 179.598 27.0136C179.265 26.7942 178.906 26.6154 178.53 26.4811C178.942 26.3484 179.337 26.1697 179.708 25.9486C181.416 24.9703 182.767 23.4741 183.563 21.6777C184.598 23.0667 185.161 24.7493 185.168 26.4798H185.167ZM175.419 37.3712C176.382 39.0139 176.688 40.9584 176.276 42.8163C174.399 43.1895 172.45 42.8465 170.815 41.855C169.667 41.2252 168.707 40.3044 168.031 39.1858C167.026 37.5193 166.683 35.539 167.066 33.6329C168.991 33.2762 170.98 33.6565 172.636 34.6979C173.807 35.2973 174.776 36.227 175.422 37.3712H175.419ZM167.925 43.667C167.907 45.5484 167.224 47.3633 165.997 48.7925C164.228 48.1508 162.747 46.9013 161.82 45.2685C161.206 44.1109 160.842 42.8379 160.752 41.5315C160.737 39.58 161.421 37.6871 162.68 36.193C164.522 36.8115 166.055 38.111 166.964 39.8235C167.558 41.0208 167.885 42.3318 167.925 43.667ZM159.246 41.5369C159.206 42.8516 158.839 44.1359 158.177 45.2739C157.208 46.9133 155.692 48.1607 153.894 48.7978C152.666 47.3686 151.983 45.5537 151.965 43.6723C151.943 42.3632 152.279 41.0727 152.936 39.9393C153.888 38.2201 155.456 36.9232 157.327 36.3088C157.979 37.0107 158.485 37.8345 158.816 38.7325C159.147 39.6305 159.296 40.585 159.255 41.5409L159.246 41.5369ZM151.749 39.1884C151.073 40.307 150.112 41.2278 148.965 41.8577C147.317 42.818 145.367 43.1232 143.504 42.7124C143.129 40.8411 143.473 38.8978 144.468 37.2674C145.099 36.1232 146.023 35.1657 147.145 34.4916C148.816 33.4904 150.803 33.1476 152.715 33.5304C152.958 34.4887 152.997 35.487 152.831 36.4615C152.665 37.436 152.297 38.3652 151.75 39.1898L151.749 39.1884ZM144.573 15.4911C143.61 13.8484 143.304 11.904 143.716 10.0461C145.593 9.67281 147.542 10.0158 149.177 11.0073C150.325 11.6372 151.285 12.5579 151.961 13.6765C152.966 15.343 153.309 17.3234 152.925 19.2294C151.001 19.5862 149.012 19.2058 147.356 18.1644C146.163 17.5932 145.189 16.6519 144.578 15.4818L144.573 15.4911ZM152.07 9.29786C152.088 7.41642 152.77 5.60155 153.998 4.17232C155.779 4.83875 157.287 6.07892 158.281 7.6963C158.895 8.85397 159.259 10.1269 159.35 11.4333C159.365 13.3849 158.681 15.2778 157.421 16.7718C155.58 16.1534 154.047 14.8539 153.138 13.1414C152.462 11.968 152.096 10.6427 152.075 9.28988L152.07 9.29786ZM160.749 11.3268C160.788 10.012 161.156 8.72771 161.817 7.58979C162.786 5.95035 164.303 4.7029 166.101 4.06582C167.328 5.49504 168.011 7.30991 168.029 9.19136C168.054 10.5012 167.721 11.7931 167.065 12.9283C166.129 14.6188 164.606 15.9099 162.781 16.5588C162.078 15.8886 161.532 15.0726 161.18 14.1685C160.829 13.2644 160.68 12.2943 160.746 11.3268H160.749ZM168.246 13.783C168.922 12.6644 169.882 11.7437 171.03 11.1138C172.677 10.1535 174.628 9.84826 176.491 10.2591C176.865 12.1304 176.521 14.0737 175.527 15.7041C174.895 16.8482 173.972 17.8058 172.85 18.4799C171.178 19.4811 169.192 19.8239 167.28 19.4411C167.033 18.4832 166.991 17.4841 167.157 16.5089C167.323 15.5337 167.693 14.6044 168.244 13.7817L168.246 13.783ZM175.1 25.8487C173.139 25.8817 171.234 25.1979 169.745 23.9263C170.365 22.0902 171.669 20.5615 173.387 19.6555C174.525 19.0016 175.821 18.6693 177.135 18.6942C179.022 18.7123 180.842 19.3929 182.276 20.6167C181.607 22.3929 180.363 23.8959 178.741 24.8875C177.598 25.4276 176.364 25.7505 175.102 25.8394L175.1 25.8487ZM169.852 32.1485C169.106 32.0417 168.349 32.0417 167.603 32.1485C167.74 31.8067 167.919 31.4837 168.137 31.1873L168.78 30.2261C169.031 30.9174 169.394 31.5635 169.853 32.1391L169.852 32.1485ZM165.675 36.3128C165.057 35.8829 164.413 35.4907 163.747 35.1386L164.711 34.4982C165.011 34.3118 165.335 34.168 165.675 34.0709C165.569 34.8114 165.57 35.5631 165.676 36.3035L165.675 36.3128ZM156.25 35.1386C155.558 35.4416 154.909 35.8366 154.322 36.3128C154.429 35.5693 154.429 34.8144 154.322 34.0709C154.665 34.2068 154.989 34.3858 155.286 34.6034C155.629 34.7372 155.954 34.9139 156.252 35.1293L156.25 35.1386ZM150.145 20.7245C150.891 20.8312 151.648 20.8312 152.394 20.7245C152.258 21.0662 152.078 21.3892 151.86 21.6857L151.218 22.6469C150.945 21.9597 150.586 21.31 150.148 20.7138L150.145 20.7245ZM150.679 26.4904C150.702 26.8489 150.666 27.2086 150.573 27.5554C149.954 27.097 149.267 26.7377 148.538 26.4904C149.248 26.2 149.929 25.8434 150.573 25.4254C150.667 25.7685 150.704 26.1246 150.684 26.4798L150.679 26.4904ZM151.322 30.1209L151.964 31.0821C152.151 31.3811 152.295 31.7046 152.393 32.0433C151.647 31.9366 150.89 31.9366 150.144 32.0433C150.624 31.4552 151.021 30.8049 151.326 30.1102L151.322 30.1209ZM154.321 16.668C154.939 17.0979 155.583 17.4901 156.249 17.8422L155.285 18.4826C154.985 18.669 154.661 18.8128 154.321 18.9099C154.43 18.1631 154.431 17.4045 154.324 16.6573L154.321 16.668ZM163.746 17.8422C164.438 17.5391 165.087 17.1442 165.674 16.668C165.567 17.4115 165.567 18.1664 165.674 18.9099C165.331 18.774 165.007 18.595 164.71 18.3774C164.369 18.2368 164.047 18.0534 163.752 17.8316L163.746 17.8422ZM168.672 22.7534L168.029 21.7922C167.842 21.4932 167.698 21.1697 167.601 20.831C168.346 20.9377 169.104 20.9377 169.849 20.831C169.397 21.4288 169.004 22.0691 168.676 22.7428L168.672 22.7534ZM169.314 26.4904C169.291 26.132 169.327 25.7722 169.421 25.4254C170.039 25.8838 170.726 26.2431 171.456 26.4904C170.745 26.7808 170.064 27.1374 169.421 27.5554C169.327 27.205 169.292 26.8415 169.318 26.4798L169.314 26.4904ZM161.168 17.094C160.847 17.094 160.419 17.2005 160.1 17.2005C159.741 17.2234 159.38 17.1874 159.032 17.094C159.492 16.4772 159.852 15.7927 160.1 15.0651C160.309 15.8077 160.676 16.4963 161.178 17.0834L161.168 17.094ZM146.507 19.4371C148.231 20.3858 149.532 21.9495 150.148 23.8145C148.649 25.0701 146.751 25.7517 144.793 25.7369H144.687C143.368 25.6976 142.08 25.3316 140.938 24.6718C139.294 23.7059 138.043 22.194 137.404 20.401C138.837 19.1773 140.658 18.4966 142.545 18.4786C143.916 18.5305 145.264 18.8565 146.507 19.4371ZM144.791 27.1201C146.754 27.0686 148.666 27.7548 150.145 29.0425C149.525 30.8786 148.222 32.4073 146.504 33.3134C145.365 33.9672 144.07 34.2995 142.756 34.2746C140.869 34.2566 139.048 33.5759 137.615 32.3522C138.283 30.5759 139.527 29.0729 141.149 28.0813C142.265 27.4661 143.516 27.1359 144.791 27.1201ZM158.82 35.7736C159.141 35.7736 159.569 35.6671 159.888 35.6671C160.247 35.6443 160.608 35.6803 160.956 35.7736C160.496 36.3904 160.136 37.0749 159.888 37.8025C159.662 37.0649 159.301 36.3755 158.822 35.7696L158.82 35.7736ZM173.5 33.4159C171.776 32.4672 170.475 30.9035 169.859 29.0385C171.357 27.7829 173.256 27.1013 175.213 27.1161C176.532 27.1554 177.82 27.5214 178.961 28.1812C180.606 29.1471 181.857 30.659 182.496 32.452C181.062 33.6757 179.242 34.3564 177.355 34.3744C176.006 34.4134 174.673 34.0818 173.5 33.4159ZM181.747 13.9787C182.628 15.495 182.968 17.2642 182.711 18.9978C181.141 17.8018 179.214 17.1657 177.239 17.1912C176.808 17.1735 176.376 17.2093 175.954 17.2977C176.229 16.9607 176.479 16.6048 176.703 16.2327C177.712 14.5277 178.126 12.5376 177.881 10.5733C179.532 11.2209 180.899 12.4301 181.74 13.9867L181.747 13.9787ZM172.644 4.79271C174.188 5.67202 175.366 7.07314 175.964 8.74271C173.993 8.49828 171.997 8.91117 170.287 9.91692C169.907 10.1295 169.549 10.3797 169.219 10.6638C169.308 10.2429 169.344 9.81274 169.326 9.38307C169.323 7.3886 168.68 5.44736 167.491 3.84349C169.266 3.57634 171.08 3.91506 172.637 4.80469L172.644 4.79271ZM160.107 1.38855C161.893 1.39979 163.625 2.00041 165.033 3.09662C163.2 3.88501 161.663 5.23007 160.642 6.94011C160.422 7.27259 160.243 7.63015 160.108 8.00516C159.975 7.59495 159.796 7.20105 159.574 6.83095C158.593 5.12785 157.092 3.78137 155.29 2.98745C156.675 1.94015 158.369 1.37809 160.107 1.38855ZM147.469 4.69819C148.99 3.82002 150.764 3.48121 152.502 3.73698C151.302 5.29811 150.661 7.2152 150.682 9.18204C150.664 9.61171 150.7 10.0419 150.789 10.4628C150.451 10.1891 150.094 9.93951 149.721 9.71589C148.011 8.71014 146.015 8.29725 144.044 8.54168C144.79 6.95724 145.98 5.62221 147.471 4.69819H147.469ZM138.256 13.8842C139.138 12.3448 140.543 11.1708 142.218 10.5746C141.972 12.539 142.387 14.529 143.395 16.234C143.609 16.6131 143.86 16.97 144.144 17.299C143.722 17.2106 143.291 17.1749 142.86 17.1925C140.857 17.1881 138.904 17.8241 137.29 19.0071C137.078 17.2395 137.417 15.4496 138.26 13.8802L138.256 13.8842ZM134.829 26.3772C134.841 24.5964 135.443 22.8695 136.543 21.466C137.333 23.2934 138.682 24.8253 140.398 25.8434C140.731 26.0628 141.09 26.2416 141.466 26.3759C141.081 26.4882 140.719 26.6686 140.398 26.9084C138.689 27.8867 137.339 29.3828 136.543 31.1793C135.43 29.824 134.826 28.1246 134.833 26.3732L134.829 26.3772ZM138.256 38.9768C137.375 37.4605 137.035 35.6913 137.292 33.9577C138.857 35.1543 140.78 35.7932 142.753 35.7723C143.184 35.79 143.616 35.7542 144.038 35.6658C143.763 36.0028 143.513 36.3587 143.289 36.7308C142.28 38.4358 141.866 40.4259 142.111 42.3902C140.484 41.7052 139.131 40.5038 138.26 38.9728L138.256 38.9768ZM147.359 48.1628C145.814 47.2795 144.637 45.8734 144.043 44.1995C146.013 44.4439 148.009 44.031 149.719 43.0253C150.1 42.8127 150.458 42.5624 150.788 42.2784C150.699 42.6993 150.663 43.1295 150.681 43.5591C150.676 45.5565 151.314 47.5027 152.501 49.112C150.73 49.3255 148.936 48.9913 147.363 48.1548L147.359 48.1628ZM159.889 51.4724C158.103 51.4612 156.371 50.8606 154.963 49.7644C156.796 48.976 158.333 47.6309 159.354 45.9209C159.574 45.5884 159.753 45.2308 159.888 44.8558C160.021 45.266 160.2 45.6599 160.422 46.03C161.403 47.7331 162.904 49.0796 164.706 49.8735C163.321 50.9171 161.629 51.4763 159.893 51.4644L159.889 51.4724ZM172.527 48.1628C171.006 49.041 169.232 49.3798 167.494 49.124C168.694 47.5629 169.335 45.6458 169.314 43.6789C169.332 43.2493 169.296 42.8191 169.207 42.3982C169.545 42.6719 169.902 42.9215 170.275 43.1451C171.985 44.1508 173.981 44.5637 175.952 44.3193C175.266 45.9382 174.063 47.2863 172.531 48.1548L172.527 48.1628ZM181.74 39.0873C180.855 40.6246 179.448 41.7958 177.773 42.3889C178.018 40.4245 177.604 38.4345 176.595 36.7295C176.382 36.3503 176.131 35.9935 175.846 35.6645C176.268 35.7529 176.7 35.7886 177.131 35.771C179.134 35.7754 181.086 35.1394 182.7 33.9564C182.914 35.7218 182.579 37.5101 181.74 39.0793V39.0873ZM176.492 26.3812C176.48 29.6348 175.504 32.8122 173.685 35.5138C171.867 38.2154 169.288 40.3206 166.272 41.5646C163.257 42.8086 159.94 43.1359 156.738 42.5053C153.537 41.8748 150.594 40.3145 148.279 38.0207C145.965 35.7269 144.383 32.802 143.731 29.6139C143.08 26.4258 143.388 23.1169 144.618 20.1032C145.848 17.0895 147.944 14.5056 150.643 12.6766C153.342 10.8476 156.523 9.855 159.786 9.82373C161.977 9.80292 164.15 10.216 166.179 11.039C168.209 11.862 170.054 13.0785 171.608 14.618C173.162 16.1576 174.394 17.9894 175.233 20.0073C176.071 22.0252 176.499 24.189 176.492 26.3732V26.3812Z" fill="white"/>
</g>
<defs>
<clipPath id="clip0_177_24">
<rect width="320" height="93" fill="white"/>
</clipPath>
</defs>
</svg>
