<svg width="42" height="42" viewBox="0 0 42 42" fill="none" xmlns="http://www.w3.org/2000/svg">
<path d="M39.8246 18.4137C41.5796 17.1395 40.6769 14.3676 38.5069 14.3676H29.982C28.0265 14.3676 26.2967 13.1015 25.7083 11.2395L22.8885 2.31403C22.2298 0.228656 19.2738 0.228656 18.6148 2.31403L15.7951 11.2395C15.2068 13.1015 13.4771 14.3676 11.5214 14.3676H2.99661C0.826522 14.3676 -0.076238 17.1395 1.67894 18.4137L9.27134 23.9251C10.9122 25.116 11.5468 27.2592 10.8185 29.1493L7.52479 37.6985C6.72347 39.7785 9.12868 41.6213 10.9339 40.3105L18.1161 35.0959C19.6874 33.9548 21.8162 33.9548 23.3875 35.0959L30.5695 40.3105C32.3748 41.6213 34.7801 39.7785 33.9786 37.6985L30.6849 29.1493C29.9567 27.2592 30.5913 25.116 32.2321 23.9251L39.8246 18.4137Z" stroke="#D7D2C2" stroke-width="1.5" stroke-linecap="round" stroke-linejoin="round"/>
</svg>
